# xmcd
#
# Track frame offsets:
#	150
#	14564
#	28283
#	41406
#	53849
#	65147
#	76091
#	90310
#	103628
#	119638
#	131865
#	145983
#	158239
#	168620
#	180128
#
# Disc length: 2587 seconds
#
# Revision: 1
# Processed by: cddbd v1.5.2PL0 Copyright (c) Steve Scherf et al.
# Submitted via: audiograbber 1.83.01
#
DISCID=cc0a190f
DTITLE=Derrick Mehaffey - Don´t Think Twice Derrick Mehaffey
DYEAR=2000
DGENRE=Country
TTITLE0=Don´t Think Twice
TTITLE1=Pride Get In The Way
TTITLE2=Roses Will Bloom Again
TTITLE3=I´ll Never Write This Song Again
TTITLE4=I´ll Take Texas
TTITLE5=How Can We See, Eye To Eye
TTITLE6=Feeling Is Believing
TTITLE7=Love´s Found You And Me
TTITLE8=Helen´s Arms
TTITLE9=Someone Had To Teach You
TTITLE10=The Minute You´re Gone
TTITLE11=I´ll Get By
TTITLE12=Give It Up
TTITLE13=Lets Be Blue Together
TTITLE14=Don´t Give Up On Me
EXTD=
EXTT0=
EXTT1=
EXTT2=
EXTT3=
EXTT4=
EXTT5=
EXTT6=
EXTT7=
EXTT8=
EXTT9=
EXTT10=
EXTT11=
EXTT12=
EXTT13=
EXTT14=
PLAYORDER=
